# xmcd
#
# Track frame offsets:
#	150
#	15691
#	28034
#	40465
#	53348
#	66844
#	80070
#	90893
#	101765
#	112614
#	125309
#	133767
#	143908
#	157349
#	168878
#	181501
#	192191
#	200163
#	208805
#	219250
#
# Disc length: 3114 seconds
#
# Revision: 1
# Processed by: cddbd v1.5.2PL0 Copyright (c) Steve Scherf et al.
# Submitted via: audiograbber 1.83.01
#
DISCID=120c2814
DTITLE=Bailes de Salon Country - Ballroom Dance Country
DYEAR=2006
DGENRE=Country
TTITLE0=01 - Ted Dallas - No Rompas Mi Corazón
TTITLE1=02 - Kenny Rogers - Reuben James
TTITLE2=03 - Johnny Cash - Folson Prison Blues
TTITLE3=04 - Kenny Rogers - Ruby Don't Take Your Love To Town
TTITLE4=05 - Frankie Laine - California Blood Lines
TTITLE5=06 - Lynn Anderson - Rose Garden
TTITLE6=07 - Roger Cline - Truckers Lady
TTITLE7=08 - Buddy Meredith - Lonely In Person
TTITLE8=09 - Johnny Ash - Cry Cry Cry
TTITLE9=10 - Dave Dudley - Me And Old C. B
TTITLE10=11 - Fredy Quinn - Oh, Susanne
TTITLE11=12 - Loretta Lynn - You're Looking At Country
TTITLE12=13 - Freddy Wellor - Games People Play
TTITLE13=14 - Don Gibson - Sea Of Heartbreak
TTITLE14=15 - Boybby Bare - Roselie
TTITLE15=16 - Johnny Cash - Train Of Love
TTITLE16=17 - Willie Nelson - Things To Remember
TTITLE17=18 - Waylon Jennings - Love's Gonna Live Here
TTITLE18=19 - George Jones - With Half A Heart
TTITLE19=20 - Andy Forstmann - My Tennessee Home
EXTD=
EXTT0=
EXTT1=
EXTT2=
EXTT3=
EXTT4=
EXTT5=
EXTT6=
EXTT7=
EXTT8=
EXTT9=
EXTT10=
EXTT11=
EXTT12=
EXTT13=
EXTT14=
EXTT15=
EXTT16=
EXTT17=
EXTT18=
EXTT19=
PLAYORDER=
